<svg xmlns="http://www.w3.org/2000/svg" xmlns:xlink="http://www.w3.org/1999/xlink" width="500" zoomAndPan="magnify" viewBox="0 0 375 374.999991" height="500" preserveAspectRatio="xMidYMid meet" version="1.0"><defs><g/><clipPath id="91102493b6"><path d="M 78.023438 120.359375 L 195.425781 120.359375 L 195.425781 237.761719 L 78.023438 237.761719 Z M 78.023438 120.359375 " clip-rule="nonzero"/></clipPath><clipPath id="d021c23d59"><path d="M 136.726562 120.359375 C 104.304688 120.359375 78.023438 146.640625 78.023438 179.0625 C 78.023438 211.480469 104.304688 237.761719 136.726562 237.761719 C 169.144531 237.761719 195.425781 211.480469 195.425781 179.0625 C 195.425781 146.640625 169.144531 120.359375 136.726562 120.359375 Z M 136.726562 120.359375 " clip-rule="nonzero"/></clipPath></defs><g clip-path="url(#91102493b6)"><g clip-path="url(#d021c23d59)"><path fill="#defc65" d="M 78.023438 120.359375 L 195.425781 120.359375 L 195.425781 237.761719 L 78.023438 237.761719 Z M 78.023438 120.359375 " fill-opacity="1" fill-rule="nonzero"/></g></g><path stroke-linecap="butt" transform="matrix(0.75, 0, 0, 0.75, 116.972942, 170.216223)" fill="none" stroke-linejoin="miter" d="M 33.37983 -3.50184 L 33.37983 24.128371 C 33.37983 27.888788 32.343372 30.758579 30.270455 32.732538 C 28.202746 34.706496 25.244413 35.69608 21.395454 35.69608 C 20.358996 35.69608 19.348579 35.57108 18.353787 35.32108 C 17.358996 35.076288 16.515246 34.774205 15.832954 34.420038 C 15.150662 34.060663 14.536079 33.69608 13.989204 33.326288 C 13.447537 32.94608 13.051704 32.63358 12.801704 32.388788 L 12.379829 32.013788 L 15.181912 24.690871 C 17.015246 26.430454 18.676704 27.295037 20.176704 27.295037 C 21.510038 27.295037 22.582954 26.857537 23.390246 25.977329 C 24.202746 25.086704 24.608996 23.722121 24.608996 21.883579 L 24.608996 -3.50184 Z M 47.286081 19.550245 L 47.286081 34.998163 L 38.515247 34.998163 L 38.515247 -3.50184 L 47.286081 -3.50184 L 47.286081 11.84712 L 59.692332 11.84712 L 59.692332 -3.50184 L 68.468374 -3.50184 L 68.468374 34.998163 L 59.692332 34.998163 L 59.692332 19.550245 Z M 74.067333 -3.50184 L 85.218375 -3.50184 C 90.567334 -3.50184 95.140251 -1.673714 98.937126 1.982536 C 102.734001 5.633578 104.635043 10.211703 104.635043 15.72212 C 104.635043 21.258579 102.744418 25.857537 98.963168 29.518996 C 95.176709 33.175246 90.598584 34.998163 85.218375 34.998163 L 74.067333 34.998163 Z M 82.838167 27.159621 L 84.192333 27.159621 C 87.39025 27.159621 90.010042 26.081496 92.046501 23.925246 C 94.088167 21.758579 95.124626 19.039829 95.155876 15.768995 C 95.155876 12.498162 94.135042 9.779411 92.103792 7.607536 C 90.067334 5.430453 87.431917 4.336703 84.192333 4.336703 L 82.838167 4.336703 Z M 82.838167 27.159621 " stroke="#808080" stroke-width="3.50043" stroke-opacity="1" stroke-miterlimit="4"/><path stroke-linecap="butt" transform="matrix(0.75, 0, 0, 0.75, 116.972942, 170.216223)" fill="none" stroke-linejoin="miter" d="M 143.551712 34.998163 L 131.46317 34.998163 L 117.280877 18.65962 L 117.280877 34.998163 L 108.504835 34.998163 L 108.504835 -3.50184 L 117.280877 -3.50184 L 117.280877 12.22212 L 130.484003 -3.50184 L 141.124629 -3.50184 L 125.629836 14.742953 Z M 145.223587 34.998163 L 145.223587 11.060661 L 153.484005 11.060661 L 153.484005 14.513787 L 153.577755 14.513787 C 153.635046 14.383578 153.734005 14.227328 153.87463 14.045037 C 154.015255 13.857537 154.322546 13.529412 154.786088 13.06587 C 155.254838 12.59712 155.754838 12.175245 156.275671 11.800245 C 156.806921 11.430453 157.494422 11.09712 158.327755 10.800245 C 159.171505 10.50337 160.03088 10.352328 160.900672 10.352328 C 161.806922 10.352328 162.692339 10.482536 163.556922 10.732536 C 164.431922 10.982536 165.067339 11.232536 165.473589 11.482536 L 166.135047 11.84712 L 162.681922 18.852329 C 161.645463 17.982537 160.213172 17.545037 158.385047 17.545037 C 157.390255 17.545037 156.53088 17.763787 155.806921 18.206495 C 155.09338 18.638787 154.588171 19.164829 154.296505 19.789829 C 154.004838 20.40962 153.796505 20.94087 153.666296 21.373162 C 153.546505 21.805454 153.484005 22.149204 153.484005 22.399204 L 153.484005 34.998163 Z M 192.681924 24.175246 L 175.317339 24.175246 C 175.317339 25.852329 175.859006 27.102329 176.947548 27.914829 C 178.041298 28.716913 179.228798 29.123163 180.50484 29.123163 C 181.838173 29.123163 182.895465 28.940871 183.671507 28.586704 C 184.447548 28.227329 185.332965 27.518996 186.338173 26.456496 L 192.306924 29.451288 C 189.81734 33.612746 185.676715 35.69608 179.885048 35.69608 C 176.280881 35.69608 173.181923 34.461705 170.603797 31.992954 C 168.020464 29.513788 166.728797 26.539829 166.728797 23.060662 C 166.728797 19.571079 168.020464 16.581495 170.603797 14.091912 C 173.181923 11.602328 176.280881 10.352328 179.885048 10.352328 C 183.687132 10.352328 186.775673 11.451286 189.150674 13.649203 C 191.53609 15.841912 192.728799 18.977329 192.728799 23.050246 C 192.728799 23.607537 192.713174 23.987746 192.681924 24.175246 Z M 175.546506 19.59712 L 184.650673 19.59712 C 184.457965 18.34712 183.968382 17.393995 183.181923 16.72212 C 182.390256 16.055453 181.374631 15.72212 180.124631 15.72212 C 178.760048 15.72212 177.671506 16.081495 176.859006 16.805453 C 176.051714 17.518995 175.614214 18.446079 175.546506 19.59712 Z M 198.223591 32.039829 C 195.978799 29.591913 194.859007 26.597121 194.859007 23.050246 C 194.859007 19.498162 195.978799 16.498162 198.223591 14.045037 C 200.463174 11.586703 203.312133 10.352328 206.765258 10.352328 C 209.937133 10.352328 212.546508 11.352328 214.609009 13.341912 L 214.609009 11.060661 L 222.869426 11.060661 L 222.869426 34.998163 L 214.69755 34.998163 L 214.69755 32.289829 L 214.609009 32.289829 C 212.546508 34.560663 209.937133 35.69608 206.765258 35.69608 C 203.312133 35.69608 200.463174 34.47733 198.223591 32.039829 Z M 205.239216 18.992954 C 204.171508 20.045037 203.63505 21.404412 203.63505 23.060662 C 203.63505 24.706496 204.145466 26.050246 205.171508 27.091912 C 206.207966 28.133579 207.562133 28.654413 209.239217 28.654413 C 210.859008 28.654413 212.187133 28.123163 213.2288 27.071079 C 214.270467 26.008579 214.7913 24.664829 214.7913 23.050246 C 214.7913 21.399204 214.254842 20.045037 213.181925 18.992954 C 212.109008 17.935662 210.796508 17.40962 209.239217 17.40962 C 207.650675 17.40962 206.317341 17.935662 205.239216 18.992954 Z M 229.85901 11.060661 L 229.85901 2.138786 L 238.119427 2.138786 L 238.119427 11.060661 L 243.155885 11.060661 L 243.155885 17.362745 L 238.119427 17.362745 L 238.119427 24.961704 C 238.119427 27.170037 238.739219 28.279413 239.978802 28.279413 C 240.291302 28.279413 240.614219 28.216913 240.957969 28.097121 C 241.306927 27.966913 241.572552 27.841913 241.754844 27.716913 L 242.041302 27.534621 L 244.093386 34.201288 C 242.312135 35.19608 240.291302 35.69608 238.020468 35.69608 C 236.468385 35.69608 235.129843 35.425246 234.010052 34.88358 C 232.89026 34.336705 232.04651 33.607538 231.468385 32.685663 C 230.89026 31.768996 230.473593 30.805454 230.223593 29.795038 C 229.98401 28.784621 229.85901 27.706496 229.85901 26.555454 L 229.85901 17.362745 L 226.405884 17.362745 L 226.405884 11.060661 Z M 247.676719 -2.293506 C 248.640261 -3.257048 249.791303 -3.741423 251.124636 -3.741423 C 252.473594 -3.741423 253.624636 -3.257048 254.588178 -2.293506 C 255.556928 -1.329964 256.036095 -0.173714 256.036095 1.170036 C 256.036095 2.508578 255.556928 3.659619 254.588178 4.623161 C 253.624636 5.581494 252.473594 6.060661 251.124636 6.060661 C 249.791303 6.060661 248.640261 5.581494 247.676719 4.623161 C 246.707969 3.659619 246.228802 2.508578 246.228802 1.170036 C 246.228802 -0.173714 246.707969 -1.329964 247.676719 -2.293506 Z M 246.890261 11.060661 L 246.890261 34.998163 L 255.150678 34.998163 L 255.150678 11.060661 Z M 267.041304 11.060661 L 272.874637 24.086704 L 278.707971 11.060661 L 288.504847 11.060661 L 275.676721 34.998163 L 270.072554 34.998163 L 257.23922 11.060661 Z M 295.692347 25.008579 C 297.181931 25.008579 298.447556 25.529412 299.489223 26.581496 C 300.536098 27.617954 301.056931 28.883579 301.056931 30.373163 C 301.056931 31.841913 300.536098 33.091913 299.489223 34.13358 C 298.447556 35.175246 297.181931 35.69608 295.692347 35.69608 C 294.228805 35.69608 292.973597 35.175246 291.93193 34.13358 C 290.890264 33.091913 290.36943 31.841913 290.36943 30.373163 C 290.36943 28.883579 290.890264 27.617954 291.93193 26.581496 C 292.973597 25.529412 294.228805 25.008579 295.692347 25.008579 Z M 295.692347 25.008579 " stroke="#808080" stroke-width="3.50043" stroke-opacity="1" stroke-miterlimit="4"/><g fill="#000000" fill-opacity="1"><g transform="translate(127.344035, 196.466221)"><g><path d="M 14.671875 -28.875 L 14.671875 -8.15625 C 14.671875 -5.332031 13.894531 -3.175781 12.34375 -1.6875 C 10.789062 -0.207031 8.566406 0.53125 5.671875 0.53125 C 4.898438 0.53125 4.140625 0.4375 3.390625 0.25 C 2.648438 0.0625 2.019531 -0.164062 1.5 -0.4375 C 0.988281 -0.707031 0.53125 -0.984375 0.125 -1.265625 C -0.28125 -1.546875 -0.578125 -1.773438 -0.765625 -1.953125 L -1.078125 -2.234375 L 1.015625 -7.734375 C 2.390625 -6.429688 3.640625 -5.78125 4.765625 -5.78125 C 5.765625 -5.78125 6.566406 -6.109375 7.171875 -6.765625 C 7.773438 -7.429688 8.078125 -8.453125 8.078125 -9.828125 L 8.078125 -28.875 Z M 14.671875 -28.875 "/></g></g></g><g fill="#000000" fill-opacity="1"><g transform="translate(143.75533, 196.466221)"><g><path d="M 8.6875 -11.578125 L 8.6875 0 L 2.09375 0 L 2.09375 -28.875 L 8.6875 -28.875 L 8.6875 -17.359375 L 17.984375 -17.359375 L 17.984375 -28.875 L 24.5625 -28.875 L 24.5625 0 L 17.984375 0 L 17.984375 -11.578125 Z M 8.6875 -11.578125 "/></g></g></g><g fill="#000000" fill-opacity="1"><g transform="translate(170.419307, 196.466221)"><g><path d="M 2.09375 -28.875 L 10.46875 -28.875 C 14.476562 -28.875 17.90625 -27.503906 20.75 -24.765625 C 23.601562 -22.023438 25.03125 -18.585938 25.03125 -14.453125 C 25.03125 -10.296875 23.609375 -6.847656 20.765625 -4.109375 C 17.929688 -1.367188 14.5 0 10.46875 0 L 2.09375 0 Z M 8.6875 -5.875 L 9.6875 -5.875 C 12.09375 -5.875 14.0625 -6.6875 15.59375 -8.3125 C 17.125 -9.9375 17.898438 -11.972656 17.921875 -14.421875 C 17.921875 -16.867188 17.15625 -18.910156 15.625 -20.546875 C 14.09375 -22.179688 12.113281 -23 9.6875 -23 L 8.6875 -23 Z M 8.6875 -5.875 "/></g></g></g><g fill="#defc65" fill-opacity="1"><g transform="translate(196.25028, 196.466221)"><g><path d="M 28.390625 0 L 19.3125 0 L 8.6875 -12.25 L 8.6875 0 L 2.09375 0 L 2.09375 -28.875 L 8.6875 -28.875 L 8.6875 -17.078125 L 18.578125 -28.875 L 26.5625 -28.875 L 14.9375 -15.1875 Z M 28.390625 0 "/></g></g></g><g fill="#defc65" fill-opacity="1"><g transform="translate(223.789055, 196.466221)"><g><path d="M 2.09375 0 L 2.09375 -17.953125 L 8.296875 -17.953125 L 8.296875 -15.359375 L 8.359375 -15.359375 C 8.410156 -15.453125 8.488281 -15.566406 8.59375 -15.703125 C 8.695312 -15.847656 8.921875 -16.09375 9.265625 -16.4375 C 9.617188 -16.789062 9.992188 -17.109375 10.390625 -17.390625 C 10.785156 -17.671875 11.296875 -17.921875 11.921875 -18.140625 C 12.554688 -18.367188 13.203125 -18.484375 13.859375 -18.484375 C 14.535156 -18.484375 15.195312 -18.390625 15.84375 -18.203125 C 16.5 -18.015625 16.984375 -17.828125 17.296875 -17.640625 L 17.78125 -17.359375 L 15.1875 -12.109375 C 14.414062 -12.765625 13.34375 -13.09375 11.96875 -13.09375 C 11.21875 -13.09375 10.570312 -12.925781 10.03125 -12.59375 C 9.5 -12.269531 9.125 -11.875 8.90625 -11.40625 C 8.6875 -10.9375 8.53125 -10.539062 8.4375 -10.21875 C 8.34375 -9.894531 8.296875 -9.640625 8.296875 -9.453125 L 8.296875 0 Z M 2.09375 0 "/></g></g></g><g fill="#defc65" fill-opacity="1"><g transform="translate(241.215121, 196.466221)"><g><path d="M 20.265625 -8.125 L 7.25 -8.125 C 7.25 -6.863281 7.65625 -5.925781 8.46875 -5.3125 C 9.28125 -4.707031 10.164062 -4.40625 11.125 -4.40625 C 12.132812 -4.40625 12.929688 -4.539062 13.515625 -4.8125 C 14.097656 -5.082031 14.757812 -5.613281 15.5 -6.40625 L 19.984375 -4.171875 C 18.117188 -1.035156 15.015625 0.53125 10.671875 0.53125 C 7.960938 0.53125 5.640625 -0.394531 3.703125 -2.25 C 1.773438 -4.113281 0.8125 -6.347656 0.8125 -8.953125 C 0.8125 -11.566406 1.773438 -13.804688 3.703125 -15.671875 C 5.640625 -17.546875 7.960938 -18.484375 10.671875 -18.484375 C 13.515625 -18.484375 15.828125 -17.660156 17.609375 -16.015625 C 19.398438 -14.367188 20.296875 -12.015625 20.296875 -8.953125 C 20.296875 -8.535156 20.285156 -8.257812 20.265625 -8.125 Z M 7.421875 -11.546875 L 14.25 -11.546875 C 14.101562 -12.484375 13.734375 -13.203125 13.140625 -13.703125 C 12.546875 -14.203125 11.78125 -14.453125 10.84375 -14.453125 C 9.820312 -14.453125 9.003906 -14.179688 8.390625 -13.640625 C 7.785156 -13.109375 7.460938 -12.410156 7.421875 -11.546875 Z M 7.421875 -11.546875 "/></g></g></g><g fill="#defc65" fill-opacity="1"><g transform="translate(262.315359, 196.466221)"><g><path d="M 3.328125 -2.21875 C 1.648438 -4.050781 0.8125 -6.296875 0.8125 -8.953125 C 0.8125 -11.617188 1.648438 -13.875 3.328125 -15.71875 C 5.003906 -17.5625 7.140625 -18.484375 9.734375 -18.484375 C 12.109375 -18.484375 14.066406 -17.734375 15.609375 -16.234375 L 15.609375 -17.953125 L 21.8125 -17.953125 L 21.8125 0 L 15.6875 0 L 15.6875 -2.03125 L 15.609375 -2.03125 C 14.066406 -0.320312 12.109375 0.53125 9.734375 0.53125 C 7.140625 0.53125 5.003906 -0.382812 3.328125 -2.21875 Z M 8.59375 -12 C 7.789062 -11.207031 7.390625 -10.191406 7.390625 -8.953125 C 7.390625 -7.722656 7.769531 -6.71875 8.53125 -5.9375 C 9.300781 -5.15625 10.316406 -4.765625 11.578125 -4.765625 C 12.796875 -4.765625 13.796875 -5.160156 14.578125 -5.953125 C 15.359375 -6.742188 15.75 -7.742188 15.75 -8.953125 C 15.75 -10.191406 15.34375 -11.207031 14.53125 -12 C 13.726562 -12.789062 12.742188 -13.1875 11.578125 -13.1875 C 10.390625 -13.1875 9.394531 -12.789062 8.59375 -12 Z M 8.59375 -12 "/></g></g></g><g fill="#defc65" fill-opacity="1"><g transform="translate(286.214958, 196.466221)"><g><path d="M 3.15625 -17.953125 L 3.15625 -24.640625 L 9.34375 -24.640625 L 9.34375 -17.953125 L 13.125 -17.953125 L 13.125 -13.234375 L 9.34375 -13.234375 L 9.34375 -7.53125 C 9.34375 -5.875 9.8125 -5.046875 10.75 -5.046875 C 10.976562 -5.046875 11.21875 -5.085938 11.46875 -5.171875 C 11.726562 -5.265625 11.929688 -5.359375 12.078125 -5.453125 L 12.28125 -5.59375 L 13.828125 -0.59375 C 12.492188 0.15625 10.976562 0.53125 9.28125 0.53125 C 8.113281 0.53125 7.109375 0.328125 6.265625 -0.078125 C 5.421875 -0.492188 4.78125 -1.046875 4.34375 -1.734375 C 3.914062 -2.421875 3.609375 -3.144531 3.421875 -3.90625 C 3.242188 -4.664062 3.15625 -5.472656 3.15625 -6.328125 L 3.15625 -13.234375 L 0.5625 -13.234375 L 0.5625 -17.953125 Z M 3.15625 -17.953125 "/></g></g></g><g fill="#defc65" fill-opacity="1"><g transform="translate(300.036834, 196.466221)"><g><path d="M 2.6875 -27.953125 C 3.414062 -28.679688 4.28125 -29.046875 5.28125 -29.046875 C 6.289062 -29.046875 7.15625 -28.679688 7.875 -27.953125 C 8.59375 -27.234375 8.953125 -26.375 8.953125 -25.375 C 8.953125 -24.375 8.59375 -23.507812 7.875 -22.78125 C 7.15625 -22.0625 6.289062 -21.703125 5.28125 -21.703125 C 4.28125 -21.703125 3.414062 -22.0625 2.6875 -22.78125 C 1.96875 -23.507812 1.609375 -24.375 1.609375 -25.375 C 1.609375 -26.375 1.96875 -27.234375 2.6875 -27.953125 Z M 2.09375 -17.953125 L 2.09375 0 L 8.296875 0 L 8.296875 -17.953125 Z M 2.09375 -17.953125 "/></g></g></g><g fill="#defc65" fill-opacity="1"><g transform="translate(310.604445, 196.466221)"><g><path d="M 6.65625 -17.953125 L 11.03125 -8.1875 L 15.40625 -17.953125 L 22.75 -17.953125 L 13.125 0 L 8.921875 0 L -0.703125 -17.953125 Z M 6.65625 -17.953125 "/></g></g></g><g fill="#defc65" fill-opacity="1"><g transform="translate(332.649461, 196.466221)"><g><path d="M 6.09375 -7.484375 C 7.207031 -7.484375 8.15625 -7.09375 8.9375 -6.3125 C 9.71875 -5.53125 10.109375 -4.582031 10.109375 -3.46875 C 10.109375 -2.363281 9.71875 -1.421875 8.9375 -0.640625 C 8.15625 0.140625 7.207031 0.53125 6.09375 0.53125 C 4.988281 0.53125 4.046875 0.140625 3.265625 -0.640625 C 2.484375 -1.421875 2.09375 -2.363281 2.09375 -3.46875 C 2.09375 -4.582031 2.484375 -5.53125 3.265625 -6.3125 C 4.046875 -7.09375 4.988281 -7.484375 6.09375 -7.484375 Z M 6.09375 -7.484375 "/></g></g></g></svg>